<svg version="1.1" id="Layer_1" xmlns="http://www.w3.org/2000/svg" xmlns:xlink="http://www.w3.org/1999/xlink" x="0px" y="0px"
	 width="100%" viewBox="0 0 200 200" enable-background="new 0 0 200 200" xml:space="preserve">
<path fill="#FEFEFF" opacity="1.000000" stroke="none" 
	d="
M137.000000,201.000000 
	C91.333336,201.000000 46.166672,201.000000 1.000006,201.000000 
	C1.000004,134.333344 1.000004,67.666679 1.000002,1.000015 
	C67.666656,1.000010 134.333313,1.000010 200.999969,1.000005 
	C200.999985,67.666649 200.999985,134.333298 201.000000,200.999969 
	C179.833328,201.000000 158.666672,201.000000 137.000000,201.000000 
M121.368408,125.371948 
	C117.186691,133.810211 112.849609,142.176727 108.903679,150.723831 
	C107.431946,153.911713 105.311768,154.741745 102.257721,154.266190 
	C98.856125,153.736496 94.905853,156.020309 92.559784,150.869812 
	C88.532242,142.027863 83.677452,133.562714 79.033379,124.226715 
	C70.239723,108.789635 64.258827,91.730118 52.145447,77.721161 
	C58.027016,77.721161 63.670799,77.966949 69.283493,77.654442 
	C75.315826,77.318565 78.837822,79.972595 81.245201,85.353256 
	C86.742142,97.639313 92.562439,109.780853 98.271652,121.971603 
	C99.088768,123.716370 100.018456,125.408417 101.188675,127.697205 
	C102.388718,125.502251 103.208000,123.918678 104.103485,122.379440 
	C110.706718,111.029121 116.973045,99.463272 124.024467,88.397987 
	C133.696152,73.220909 146.278290,61.328922 164.222626,56.199146 
	C150.083969,54.761093 138.672836,60.748940 127.761345,70.169525 
	C127.761345,60.280376 127.831261,51.327614 127.740440,42.376484 
	C127.659683,34.417343 124.066986,30.841244 116.063560,30.765196 
	C106.565506,30.674952 97.065865,30.719795 87.567055,30.749737 
	C77.288261,30.782137 74.233864,33.886353 74.221924,44.236637 
	C74.212761,52.181065 74.220100,60.125511 74.220100,68.458534 
	C71.777802,68.458534 69.975754,68.457352 68.173706,68.458748 
	C60.674614,68.464546 53.171089,68.312172 45.677658,68.521347 
	C37.913307,68.738083 34.906464,71.944183 34.865536,79.707390 
	C34.804913,91.205734 34.783821,102.705208 34.878647,114.203110 
	C34.933220,120.820381 38.095257,124.121490 44.622849,124.202980 
	C54.283691,124.323586 63.947926,124.172264 73.928246,125.008675 
	C74.003868,134.471497 73.992561,143.936050 74.182602,153.396576 
	C74.334579,160.961990 78.512665,164.972992 86.023071,164.996323 
	C96.322792,165.028336 106.633148,165.258835 116.915649,164.836777 
	C119.722649,164.721558 123.311035,163.262375 124.977386,161.173035 
	C126.836891,158.841522 127.492302,155.120499 127.660751,151.950516 
	C128.152893,142.689835 128.141479,133.402390 129.216751,124.248665 
	C138.704239,124.243858 148.193237,124.339417 157.678604,124.195427 
	C163.100998,124.113106 166.866821,121.211380 166.960739,116.419655 
	C167.221573,103.111748 167.348495,89.784813 166.903534,76.486298 
	C166.676941,69.713982 159.065857,66.540161 153.598267,70.616173 
	C151.256165,72.362190 149.012009,74.655083 147.619370,77.191467 
	C138.916382,93.042023 130.466736,109.031677 121.368408,125.371948 
z"/>
<path fill="#036AE3" opacity="1.000000" stroke="none" 
	d="
M73.610718,124.136719 
	C63.947926,124.172264 54.283691,124.323586 44.622849,124.202980 
	C38.095257,124.121490 34.933220,120.820381 34.878647,114.203110 
	C34.783821,102.705208 34.804913,91.205734 34.865536,79.707390 
	C34.906464,71.944183 37.913307,68.738083 45.677658,68.521347 
	C53.171089,68.312172 60.674614,68.464546 68.173706,68.458748 
	C69.975754,68.457352 71.777802,68.458534 74.220100,68.458534 
	C74.220100,60.125511 74.212761,52.181065 74.221924,44.236637 
	C74.233864,33.886353 77.288261,30.782137 87.567055,30.749737 
	C97.065865,30.719795 106.565506,30.674952 116.063560,30.765196 
	C124.066986,30.841244 127.659683,34.417343 127.740440,42.376484 
	C127.831261,51.327614 127.761345,60.280376 127.761345,70.169525 
	C138.672836,60.748940 150.083969,54.761093 164.222626,56.199146 
	C146.278290,61.328922 133.696152,73.220909 124.024467,88.397987 
	C116.973045,99.463272 110.706718,111.029121 104.103485,122.379440 
	C103.208000,123.918678 102.388718,125.502251 101.188675,127.697205 
	C100.018456,125.408417 99.088768,123.716370 98.271652,121.971603 
	C92.562439,109.780853 86.742142,97.639313 81.245201,85.353256 
	C78.837822,79.972595 75.315826,77.318565 69.283493,77.654442 
	C63.670799,77.966949 58.027016,77.721161 52.145447,77.721161 
	C64.258827,91.730118 70.239723,108.789635 78.695648,124.594208 
	C76.775513,124.686699 75.193115,124.411705 73.610718,124.136719 
z"/>
<path fill="#046AE3" opacity="1.000000" stroke="none" 
	d="
M121.933182,124.975258 
	C130.466736,109.031677 138.916382,93.042023 147.619370,77.191467 
	C149.012009,74.655083 151.256165,72.362190 153.598267,70.616173 
	C159.065857,66.540161 166.676941,69.713982 166.903534,76.486298 
	C167.348495,89.784813 167.221573,103.111748 166.960739,116.419655 
	C166.866821,121.211380 163.100998,124.113106 157.678604,124.195427 
	C148.193237,124.339417 138.704239,124.243858 128.358932,124.157349 
	C125.645142,124.369110 123.789162,124.672180 121.933182,124.975258 
z"/>
<path fill="#0356D1" opacity="1.000000" stroke="none" 
	d="
M121.650795,125.173599 
	C123.789162,124.672180 125.645142,124.369110 127.914276,124.095741 
	C128.141479,133.402390 128.152893,142.689835 127.660751,151.950516 
	C127.492302,155.120499 126.836891,158.841522 124.977386,161.173035 
	C123.311035,163.262375 119.722649,164.721558 116.915649,164.836777 
	C106.633148,165.258835 96.322792,165.028336 86.023071,164.996323 
	C78.512665,164.972992 74.334579,160.961990 74.182602,153.396576 
	C73.992561,143.936050 74.003868,134.471497 73.769485,124.572693 
	C75.193115,124.411705 76.775513,124.686699 78.763931,124.950546 
	C83.677452,133.562714 88.532242,142.027863 92.559784,150.869812 
	C94.905853,156.020309 98.856125,153.736496 102.257721,154.266190 
	C105.311768,154.741745 107.431946,153.911713 108.903679,150.723831 
	C112.849609,142.176727 117.186691,133.810211 121.650795,125.173599 
z"/>
</svg>